<svg width="194" height="65" viewBox="0 0 194 65" fill="none" xmlns="http://www.w3.org/2000/svg">
<g clip-path="url(#clip0_1_22)">
<path d="M28.9136 36.0111H0V65H28.9136V36.0111Z" fill="#231F20"/>
<path d="M28.9136 5.37787H0V34.3668H28.9136V5.37787Z" fill="#231F20"/>
<path d="M30.6346 5.37788L42.7956 0V28.425L30.6346 34.2003V5.37788Z" fill="#231F20"/>
<path d="M59.5483 36.0111H30.6346V65H59.5483V36.0111Z" fill="#231F20"/>
<path d="M61.2693 36.1809L73.4302 30.803V59.2246L61.2693 65V36.1809Z" fill="#231F20"/>
<path d="M70.9278 13.8065C70.9278 19.6464 66.7801 23.91 60.2573 23.91H52.1684V3.73358H60.2573C66.7835 3.73358 70.9278 7.88505 70.9278 13.8065ZM59.8202 18.9568C63.097 18.9568 65.1554 17.1256 65.1554 13.8065C65.1554 10.4874 63.097 8.59847 59.8202 8.59847H57.8479V18.9602H59.8202V18.9568Z" fill="#231F20"/>
<path d="M82.1215 24.1104C76.3216 24.1104 71.6231 19.8163 71.6231 13.7488C71.6231 7.68124 76.3216 3.41766 82.1215 3.41766C87.9214 3.41766 92.5889 7.68124 92.5889 13.7488C92.5889 19.8163 87.9214 24.1104 82.1215 24.1104ZM82.1215 18.9024C85.0507 18.9024 86.82 16.8709 86.82 13.7522C86.82 10.6335 85.0507 8.57132 82.1215 8.57132C79.1923 8.57132 77.423 10.5757 77.423 13.7522C77.423 16.9286 79.1613 18.9024 82.1215 18.9024Z" fill="#231F20"/>
<path d="M102.11 18.2162L98.7159 23.91H92.2482L98.888 13.5789L92.0141 3.73358H98.7124L102.568 9.28472L105.872 3.73358H112.34L105.786 13.8948L112.773 23.9134H106.075L102.103 18.2195L102.11 18.2162Z" fill="#231F20"/>
<path d="M124.029 23.91H113.909V3.73358H123.709C127.857 3.73358 130.407 5.62246 130.407 8.97218C130.407 11.4046 128.958 13.0081 126.955 13.5517C129.392 14.0953 130.869 16.1268 130.869 18.4166C130.869 21.8207 128.404 23.91 124.026 23.91H124.029ZM122.463 8.1976H119.592V11.7477H122.463C123.854 11.7477 124.607 11.177 124.607 10.0015C124.607 8.82609 123.854 8.1976 122.463 8.1976ZM122.869 15.726H119.592V19.3882H122.897C124.318 19.3882 125.041 18.8141 125.041 17.6148C125.041 16.4156 124.26 15.726 122.866 15.726H122.869Z" fill="#231F20"/>
<path d="M142.011 24.1104C136.211 24.1104 131.512 19.8163 131.512 13.7488C131.512 7.68124 136.211 3.41766 142.011 3.41766C147.811 3.41766 152.478 7.68124 152.478 13.7488C152.478 19.8163 147.811 24.1104 142.011 24.1104ZM142.011 18.9024C144.94 18.9024 146.709 16.8709 146.709 13.7522C146.709 10.6335 144.94 8.57132 142.011 8.57132C139.081 8.57132 137.312 10.5757 137.312 13.7522C137.312 16.9286 139.05 18.9024 142.011 18.9024Z" fill="#231F20"/>
<path d="M194 13.8065C194 19.6464 189.852 23.91 183.33 23.91H175.241V3.73358H183.33C189.856 3.73358 194 7.88505 194 13.8065ZM182.892 18.9568C186.169 18.9568 188.228 17.1256 188.228 13.8065C188.228 10.4874 186.169 8.59847 182.892 8.59847H180.92V18.9602H182.892V18.9568Z" fill="#231F20"/>
<path d="M173.581 23.91H167.73V12.8688C167.73 10.6674 165.916 8.87705 163.685 8.87705C161.455 8.87705 159.641 10.6674 159.641 12.8688V23.91H153.789V12.8688C153.789 7.48416 158.23 3.10168 163.685 3.10168C169.141 3.10168 173.581 7.48416 173.581 12.8688V23.91Z" fill="#231F20"/>
</g>
<defs>
<clipPath id="clip0_1_22">
<rect width="194" height="65" fill="white"/>
</clipPath>
</defs>
</svg>
