<svg width="16" height="16" viewBox="0 0 16 16" fill="none" xmlns="http://www.w3.org/2000/svg">
<path d="M2.81737 12.6785C2.62959 13.0477 2.77665 13.4992 3.14586 13.687C3.51506 13.8748 3.96658 13.7277 4.15437 13.3585L2.81737 12.6785ZM11.8456 13.3585C12.0334 13.7277 12.4849 13.8748 12.8541 13.687C13.2233 13.4992 13.3704 13.0477 13.1826 12.6785L11.8456 13.3585ZM14 8C14 11.3137 11.3137 14 8 14V15.5C12.1421 15.5 15.5 12.1421 15.5 8H14ZM8 14C4.68629 14 2 11.3137 2 8H0.5C0.5 12.1421 3.85786 15.5 8 15.5V14ZM2 8C2 4.68629 4.68629 2 8 2V0.5C3.85786 0.5 0.5 3.85786 0.5 8H2ZM8 2C11.3137 2 14 4.68629 14 8H15.5C15.5 3.85786 12.1421 0.5 8 0.5V2ZM10.0625 7.4375C10.0625 8.57659 9.13909 9.5 8 9.5V11C9.96751 11 11.5625 9.40501 11.5625 7.4375H10.0625ZM8 9.5C6.86091 9.5 5.9375 8.57659 5.9375 7.4375H4.4375C4.4375 9.40501 6.03249 11 8 11V9.5ZM5.9375 7.4375C5.9375 6.29841 6.86091 5.375 8 5.375V3.875C6.03249 3.875 4.4375 5.46999 4.4375 7.4375H5.9375ZM8 5.375C9.13909 5.375 10.0625 6.29841 10.0625 7.4375H11.5625C11.5625 5.46999 9.96751 3.875 8 3.875V5.375ZM4.15437 13.3585C4.51533 12.6488 5.06564 12.0529 5.74437 11.6366L4.96016 10.3579C4.04546 10.9189 3.30383 11.7221 2.81737 12.6785L4.15437 13.3585ZM5.74437 11.6366C6.4231 11.2203 7.20379 11 8 11L8 9.5C6.92697 9.5 5.87487 9.79693 4.96016 10.3579L5.74437 11.6366ZM8 11C8.79621 11 9.57688 11.2203 10.2556 11.6366L11.0398 10.3579C10.1251 9.79692 9.07303 9.5 8 9.5L8 11ZM10.2556 11.6366C10.9343 12.0528 11.4847 12.6488 11.8456 13.3585L13.1826 12.6785C12.6962 11.722 11.9545 10.9189 11.0398 10.3579L10.2556 11.6366Z" fill="#090909"/>
</svg>
