<svg fill="none" xmlns="http://www.w3.org/2000/svg" viewBox="0 0 295 350" class="roulette absolute text-green md:text-yellow -left-[10.5vw] md:-left-[1.5vw] top-[4vw] w-[34vw] md:w-[17vw] -rotate-90 md:rotate-[-50deg]" data-v-8cfd0fed=""><path class="curve" d="M9.62 112.32S70.48-20.02 133 16.32c36 20.93 44.32 67 41.2 105.32-1.47 18.07-4.78 37.76-13.25 53.94-6.91 13.19-19 24.55-33.72 26.69-18.07 2.63-36.31-9-45.74-23.83-20.18-31.76 17.6-71.16 39.46-91.3 25.66-23.66 63.28-48.44 100-39 66.59 17.17 73.89 115.46 54.83 167.67-15.89 43.56-56.06 93.45-107.18 90.94" stroke="currentColor" stroke-width="20" stroke-miterlimit="10" pathLength="1" data-v-8cfd0fed="" style="stroke-dashoffset: 0; visibility: visible;"></path><path class="arrow" d="m192.79 344.06-34.71-39.79 39.79-34.7" stroke="currentColor" stroke-width="15.78" stroke-miterlimit="10" pathLength="1" data-v-8cfd0fed="" style="stroke-dashoffset: 0; visibility: visible;"></path></svg>